<?xml version="1.0" standalone="no"?>
<!DOCTYPE svg PUBLIC "-//W3C//DTD SVG 20010904//EN"
 "http://www.w3.org/TR/2001/REC-SVG-20010904/DTD/svg10.dtd">
<svg version="1.0" xmlns="http://www.w3.org/2000/svg"
 width="512.000000pt" height="512.000000pt" viewBox="0 0 512.000000 512.000000"
 preserveAspectRatio="xMidYMid meet">

<g transform="translate(0.000000,512.000000) scale(0.100000,-0.100000)"
fill="#000000" stroke="none">
<path d="M450 5104 c-216 -46 -389 -221 -435 -439 -22 -105 -22 -4105 0 -4210
46 -220 220 -394 440 -440 105 -22 4105 -22 4210 0 220 46 394 220 440 440 22
105 22 4105 0 4210 -46 220 -220 394 -440 440 -102 21 -4115 21 -4215 -1z
m2644 -912 c3 -5 -35 -336 -84 -736 -50 -401 -90 -735 -90 -742 0 -12 63 -14
379 -14 220 0 382 -4 386 -9 4 -7 -1376 -1497 -1621 -1751 -16 -16 -27 -21
-34 -14 -6 6 22 261 80 738 50 400 90 734 90 742 0 12 -61 14 -379 14 -221 0
-382 4 -386 9 -5 9 1633 1771 1647 1771 4 0 9 -4 12 -8z"/>
</g>
</svg>
