<?xml version="1.0" standalone="no"?>
<!DOCTYPE svg PUBLIC "-//W3C//DTD SVG 20010904//EN"
 "http://www.w3.org/TR/2001/REC-SVG-20010904/DTD/svg10.dtd">
<svg version="1.0" xmlns="http://www.w3.org/2000/svg"
 width="1000.000000pt" height="610.000000pt" viewBox="0 0 1000.000000 610.000000"
 preserveAspectRatio="xMidYMid meet">

<g transform="translate(0.000000,610.000000) scale(0.100000,-0.100000)"
fill="#000000" stroke="none">
<path d="M4040 5332 c-14 -2 -33 -11 -42 -19 -9 -8 -22 -12 -28 -8 -6 4 -17 1
-26 -5 -8 -7 -29 -20 -47 -29 -19 -10 -31 -23 -31 -34 1 -10 -5 -17 -15 -17
-23 0 -52 -42 -79 -113 -21 -57 -22 -69 -21 -500 0 -243 4 -460 9 -481 4 -20
25 -62 45 -93 l37 -55 19 21 c16 17 24 19 39 11 30 -16 24 -37 -7 -28 -5 1 -7
9 -5 18 3 12 0 12 -15 -3 -23 -23 -12 -41 45 -73 51 -29 66 -30 33 -4 -13 11
-18 20 -13 20 6 0 14 -5 18 -11 3 -6 15 -8 27 -5 15 4 17 2 8 -7 -16 -16 -14
-24 12 -33 35 -12 701 -21 709 -9 5 7 8 6 8 0 0 -6 -6 -17 -12 -24 -10 -11
-10 -13 0 -7 6 4 12 2 12 -4 0 -14 46 -60 60 -60 6 0 8 -4 5 -10 -4 -6 3 -6
21 0 15 6 29 8 32 5 3 -3 0 -5 -6 -5 -7 0 -12 -11 -12 -25 0 -16 6 -25 16 -25
8 0 13 -4 10 -9 -3 -4 6 -19 19 -31 14 -13 25 -19 25 -13 0 6 -7 13 -15 17 -8
3 -15 13 -15 23 1 17 1 17 11 0 7 -12 18 -16 32 -13 12 3 16 3 10 0 -19 -8
-16 -54 3 -54 8 0 13 -4 10 -9 -6 -10 70 -76 89 -77 5 0 16 4 23 9 8 6 12 5
12 -3 0 -9 4 -9 13 -2 6 6 16 10 22 10 5 0 11 6 13 14 2 9 0 8 -7 -2 -7 -9
-11 -10 -11 -3 0 7 -11 10 -27 8 -16 -1 -27 -8 -25 -14 3 -16 -4 -14 -32 13
-32 29 -32 31 2 33 18 1 22 0 10 -5 -13 -5 -15 -11 -8 -22 8 -13 11 -13 19 -1
5 7 13 11 19 7 6 -3 22 -2 36 4 17 6 27 6 32 -1 15 -25 21 20 20 148 l-1 134
23 -6 c14 -3 22 -1 22 7 0 9 3 9 12 0 13 -13 498 -18 498 -4 0 4 20 8 44 9 24
1 57 9 73 18 25 14 13 17 -22 4 -5 -2 -11 1 -13 6 -1 6 17 11 40 11 25 1 42 6
41 12 -2 6 4 9 13 5 8 -3 14 -2 13 3 -3 20 2 34 12 34 5 0 7 -5 3 -12 -4 -7
-3 -8 4 -4 7 4 12 13 12 21 0 8 5 17 12 21 7 4 8 3 4 -4 -4 -7 -5 -12 -2 -12
3 0 10 10 17 21 9 17 8 20 -3 13 -10 -6 -11 -5 -1 7 8 9 9 20 3 29 -13 21 -12
27 4 27 8 0 11 -8 8 -19 -2 -10 0 -18 5 -18 12 0 47 79 39 87 -3 4 -6 0 -6 -7
0 -7 -2 -11 -5 -8 -9 8 6 38 16 32 5 -3 9 187 9 455 0 451 0 460 -20 466 -21
7 -28 25 -10 25 6 0 10 -5 10 -12 0 -6 2 -9 5 -6 10 10 -7 37 -20 32 -10 -4
-12 1 -8 16 3 12 0 33 -8 46 -12 23 -14 24 -20 7 -7 -16 -8 -15 -8 5 -1 12
-13 36 -28 53 -21 23 -33 29 -53 24 -17 -4 -21 -3 -11 4 11 7 7 14 -20 30 -19
12 -43 22 -54 22 -11 1 -31 3 -45 5 -33 5 -1638 10 -1670 6z m1645 -22 c-3 -5
-25 -9 -48 -8 l-42 1 45 7 c25 4 46 8 48 8 2 1 0 -2 -3 -8z m120 -20 c3 -5 1
-10 -4 -10 -6 0 -11 5 -11 10 0 6 2 10 4 10 3 0 8 -4 11 -10z m-1885 -30 c0
-5 -2 -10 -4 -10 -3 0 -8 5 -11 10 -3 6 -1 10 4 10 6 0 11 -4 11 -10z m1870 6
c0 -2 -7 -7 -16 -10 -8 -3 -12 -2 -9 4 6 10 25 14 25 6z m15 -26 c-3 -5 -16
-10 -28 -9 -20 1 -20 2 3 9 14 4 26 8 28 9 2 1 0 -3 -3 -9z m-1870 -10 c3 -5
-1 -10 -10 -10 -9 0 -13 5 -10 10 3 6 8 10 10 10 2 0 7 -4 10 -10z m1949 -1
c3 -3 -6 -6 -19 -7 -13 -1 -26 2 -29 6 -5 8 40 9 48 1z m-1857 -15 c-3 -3 -12
-4 -19 -1 -8 3 -5 6 6 6 11 1 17 -2 13 -5z m1196 -11 c-211 -2 -555 -2 -765 0
-211 1 -39 2 382 2 421 0 593 -1 383 -2z m-1170 -20 c-7 -2 -19 -2 -25 0 -7 3
-2 5 12 5 14 0 19 -2 13 -5z m1670 -15 c3 -10 7 -10 20 1 10 7 17 9 17 3 0
-18 -31 -22 -58 -7 -25 13 -25 14 -5 15 12 0 23 -6 26 -12z m-17 -23 c20 -8
41 -12 47 -8 6 4 7 1 2 -6 -5 -9 -1 -12 11 -10 11 2 25 -1 33 -5 11 -7 13 -5
8 6 -6 17 16 19 30 3 4 -4 2 -5 -4 -1 -8 5 -13 1 -13 -9 0 -11 -5 -15 -14 -12
-23 9 -26 -4 -6 -26 19 -20 20 -40 20 -476 0 -324 3 -455 11 -453 6 1 8 -2 4
-8 -5 -7 -11 -8 -19 -1 -8 7 -15 4 -24 -9 -6 -10 -8 -20 -4 -23 4 -2 2 -3 -3
-2 -14 3 -56 -31 -48 -38 7 -8 14 -8 -387 -13 -429 -6 -395 7 -399 -151 -1
-35 -24 -46 -35 -18 -3 8 -17 20 -31 25 -14 5 -25 16 -25 23 0 16 -51 67 -67
67 -6 0 -13 -6 -16 -12 -2 -7 -8 -9 -13 -5 -5 4 -2 12 5 16 19 12 5 30 -19 24
-14 -4 -20 0 -20 12 0 14 -6 16 -37 11 -21 -4 -33 -3 -27 1 7 4 -124 8 -290 8
-307 0 -387 8 -400 41 -3 8 -15 11 -33 8 -20 -3 -24 -2 -13 5 8 5 18 7 24 4 6
-4 6 1 2 13 -5 10 -11 27 -13 36 -3 10 -8 16 -12 14 -3 -2 -5 19 -4 47 0 29 2
227 3 441 1 366 2 389 20 409 11 11 17 24 14 28 -2 4 1 11 7 15 8 5 9 3 4 -7
-8 -12 -6 -12 9 0 13 11 14 16 4 23 -9 7 -7 8 7 4 11 -3 27 -1 35 4 8 5 11 10
5 10 -5 0 -5 4 2 8 6 4 376 6 822 5 698 -2 816 -5 847 -18z m-1888 -41 c-3
-14 -5 -12 -10 9 -3 19 -2 25 4 19 6 -6 8 -18 6 -28z m119 -1 c1 -32 -1 -34
-8 -15 -7 18 -3 52 5 52 1 0 2 -17 3 -37z m2017 -35 c8 -5 7 -8 -1 -8 -7 0
-17 9 -23 19 -14 27 -12 41 2 16 6 -11 16 -23 22 -27z m-115 -22 c1 -6 -5 -1
-13 9 -8 11 -12 24 -8 29 5 9 20 -17 21 -38z m-2004 24 c3 -5 1 -10 -4 -10 -6
0 -11 5 -11 10 0 6 2 10 4 10 3 0 8 -4 11 -10z m2002 -882 c-3 -8 -6 -5 -6 6
-1 11 2 17 5 13 3 -3 4 -12 1 -19z m123 -12 c0 -3 -4 -8 -10 -11 -5 -3 -10 -1
-10 4 0 6 5 11 10 11 6 0 10 -2 10 -4z m-23 -58 c-3 -7 -5 -2 -5 12 0 14 2 19
5 13 2 -7 2 -19 0 -25z m20 0 c-3 -8 -6 -5 -6 6 -1 11 2 17 5 13 3 -3 4 -12 1
-19z m-2147 -39 c0 -11 -4 -17 -10 -14 -5 3 -10 13 -10 21 0 8 5 14 10 14 6 0
10 -9 10 -21z m17 -1 c-3 -8 -6 -5 -6 6 -1 11 2 17 5 13 3 -3 4 -12 1 -19z
m157 -14 c7 -17 -6 -18 -22 -2 -7 7 -12 15 -12 20 0 12 28 -2 34 -18z m36 -8
c0 -3 -4 -8 -10 -11 -5 -3 -10 -1 -10 4 0 6 5 11 10 11 6 0 10 -2 10 -4z m-75
-16 c3 -5 1 -10 -4 -10 -6 0 -11 5 -11 10 0 6 2 10 4 10 3 0 8 -4 11 -10z
m1070 -10 c3 -5 2 -10 -4 -10 -5 0 -13 5 -16 10 -3 6 -2 10 4 10 5 0 13 -4 16
-10z m725 -6 c0 -2 -13 -4 -30 -4 -16 0 -30 4 -30 8 0 5 14 7 30 4 17 -2 30
-6 30 -8z m132 -19 c3 0 9 -3 13 -7 4 -3 -1 -5 -12 -3 -10 2 -21 4 -25 4 -5 1
-8 6 -8 12 0 6 5 7 13 2 6 -4 15 -8 19 -8z m-1127 -5 c-3 -5 -10 -10 -16 -10
-5 0 -9 5 -9 10 0 6 7 10 16 10 8 0 12 -4 9 -10z m-825 -45 c0 -8 -4 -15 -10
-15 -5 0 -7 7 -4 15 4 8 8 15 10 15 2 0 4 -7 4 -15z m117 -21 c-3 -3 -12 -4
-19 -1 -8 3 -5 6 6 6 11 1 17 -2 13 -5z m683 -20 c0 -14 -3 -14 -15 -4 -8 7
-15 14 -15 16 0 2 7 4 15 4 8 0 15 -7 15 -16z m-582 -1 c-16 -2 -40 -2 -55 0
-16 2 -3 4 27 4 30 0 43 -2 28 -4z m692 -3 c0 -5 -7 -10 -15 -10 -8 0 -15 5
-15 10 0 6 7 10 15 10 8 0 15 -4 15 -10z m803 3 c-7 -2 -19 -2 -25 0 -7 3 -2
5 12 5 14 0 19 -2 13 -5z m-1596 -9 c-3 -3 -12 -4 -19 -1 -8 3 -5 6 6 6 11 1
17 -2 13 -5z m640 0 c-3 -3 -12 -4 -19 -1 -8 3 -5 6 6 6 11 1 17 -2 13 -5z
m478 -4 c8 -13 -5 -13 -25 0 -13 8 -13 10 2 10 9 0 20 -4 23 -10z m460 -10
c-11 -5 -110 -8 -220 -7 l-200 1 205 6 c113 3 212 6 220 7 8 1 6 -2 -5 -7z
m-1082 -7 c-67 -2 -179 -2 -250 0 -70 1 -15 3 122 3 138 0 195 -2 128 -3z
m327 -8 c0 -8 -4 -15 -10 -15 -5 0 -10 7 -10 15 0 8 5 15 10 15 6 0 10 -7 10
-15z m43 -2 c-3 -7 -6 -13 -8 -13 -2 0 -5 6 -8 13 -3 8 1 14 8 14 7 0 11 -6 8
-14z m-123 -54 c0 -14 -17 -10 -23 5 -4 10 -1 13 9 9 7 -3 14 -9 14 -14z m95
-49 c3 -6 0 -17 -9 -25 -19 -19 -22 -19 -30 1 -4 12 -2 15 9 11 8 -4 17 -2 20
3 3 4 -1 11 -7 13 -9 4 -10 6 -1 6 6 1 15 -4 18 -9z m80 -80 c3 -6 0 -17 -9
-25 -19 -19 -22 -19 -30 1 -4 12 -2 15 9 11 8 -4 17 -2 20 3 3 4 -1 11 -7 13
-9 4 -10 6 -1 6 6 1 15 -4 18 -9z m5 -83 c0 -5 -4 -5 -10 -2 -5 3 -10 14 -10
23 0 15 2 15 10 2 5 -8 10 -19 10 -23z"/>
<path d="M4058 5153 c7 -3 16 -2 19 1 4 3 -2 6 -13 5 -11 0 -14 -3 -6 -6z"/>
<path d="M4333 4903 c-13 -3 -23 -9 -23 -14 0 -6 -4 -8 -9 -5 -15 10 -43 -6
-37 -20 5 -13 -5 -18 -30 -15 -6 1 -27 -16 -47 -38 -42 -47 -62 -81 -47 -81 5
0 10 5 10 10 0 6 5 10 12 10 9 0 9 -3 0 -12 -7 -7 -12 -22 -12 -34 0 -13 -5
-26 -10 -29 -7 -4 -9 2 -4 19 8 32 -12 35 -22 4 -4 -13 -7 -56 -7 -96 1 -61 6
-84 30 -130 24 -48 33 -57 55 -57 15 -1 31 -5 35 -9 4 -4 0 -6 -9 -4 -9 1 -16
-1 -15 -7 1 -5 8 -9 15 -7 8 2 12 -2 10 -10 -3 -7 0 -17 6 -23 17 -16 67 -36
76 -30 5 3 10 -1 13 -7 3 -10 7 -10 20 0 9 8 22 12 29 9 8 -4 7 -6 -4 -6 -10
-1 -18 -5 -18 -10 0 -18 168 -1 180 18 4 7 13 11 21 9 8 -2 13 3 11 10 -1 6 6
12 16 12 24 0 95 78 88 97 -3 8 -2 12 3 9 32 -20 54 215 23 246 -11 11 -12 9
-6 -7 4 -11 3 -17 -2 -12 -4 4 -9 20 -9 35 -1 32 -25 72 -42 72 -7 0 -13 6
-13 14 0 7 -6 19 -14 25 -11 9 -18 8 -30 -4 -14 -15 -16 -15 -16 -1 0 9 5 16
11 16 8 0 8 5 -1 15 -13 16 -35 21 -26 7 3 -5 -9 -9 -25 -9 -30 0 -30 1 -9 12
23 12 23 12 -6 19 -35 9 -141 14 -171 9z m-26 -60 c-9 -2 -15 -9 -12 -14 3 -5
-1 -6 -10 -2 -13 5 -14 7 -3 14 7 5 20 8 28 8 11 -1 10 -3 -3 -6z m198 -22
c-6 -5 -25 10 -25 20 0 5 6 4 14 -3 8 -7 12 -15 11 -17z m35 19 c13 -8 13 -10
-2 -10 -9 0 -20 5 -23 10 -8 13 5 13 25 0z m-111 -24 c-2 -2 -20 -6 -39 -10
-25 -4 -31 -3 -20 4 14 9 69 15 59 6z m175 -29 c10 -7 17 -20 15 -29 -3 -12
-10 -9 -32 13 -29 30 -17 41 17 16z m-411 -13 c7 1 9 1 4 -1 -4 -3 -5 -9 -2
-14 4 -5 -1 -6 -9 -3 -9 3 -16 14 -15 23 0 9 3 11 5 4 3 -7 11 -11 17 -9z
m264 -8 c11 0 19 -4 16 -9 -5 -8 38 -27 49 -20 4 2 5 -4 1 -13 -4 -11 -3 -15
5 -11 6 5 18 -13 30 -46 19 -50 19 -56 5 -101 -16 -47 -71 -115 -95 -117 -7
-1 -22 0 -33 1 -16 2 -17 0 -6 -14 8 -10 9 -16 3 -16 -6 0 -14 5 -17 10 -3 6
-11 10 -16 10 -6 0 -8 -4 -5 -9 4 -5 -3 -7 -15 -4 -11 3 -23 12 -26 19 -3 8
-9 11 -14 8 -5 -3 -7 -9 -4 -14 3 -4 -2 -7 -12 -6 -9 2 -17 10 -19 19 -1 11 3
14 14 10 10 -4 3 6 -15 21 -37 31 -55 79 -52 138 1 24 -2 51 -6 62 -5 11 -3
21 5 26 7 4 9 13 6 19 -4 6 -2 11 5 11 6 0 9 -8 6 -20 -3 -11 -1 -20 5 -20 5
0 12 9 15 20 3 11 9 17 14 14 5 -3 12 1 15 10 3 8 11 13 17 10 7 -2 23 3 37
10 14 8 34 12 45 9 11 -3 30 -6 42 -7z m203 -1 c11 -13 10 -14 -4 -9 -9 3 -16
10 -16 15 0 13 6 11 20 -6z m-97 -30 c-3 -9 -8 -14 -10 -11 -3 3 -2 9 2 15 9
16 15 13 8 -4z m94 -17 c-3 -8 -6 -5 -6 6 -1 11 2 17 5 13 3 -3 4 -12 1 -19z
m-20 -80 c-3 -8 -6 -5 -6 6 -1 11 2 17 5 13 3 -3 4 -12 1 -19z m33 12 c0 -5
-4 -10 -10 -10 -5 0 -10 5 -10 10 0 6 5 10 10 10 6 0 10 -4 10 -10z m30 -41
c0 -9 -7 -30 -15 -45 -9 -18 -15 -23 -15 -12 0 9 4 19 9 23 5 3 7 22 5 43 -4
28 -3 33 5 22 6 -8 11 -22 11 -31z m-545 22 c3 -5 1 -12 -5 -16 -5 -3 -10 1
-10 9 0 18 6 21 15 7z m462 -13 c-3 -8 -6 -5 -6 6 -1 11 2 17 5 13 3 -3 4 -12
1 -19z m-20 -30 c-3 -8 -6 -5 -6 6 -1 11 2 17 5 13 3 -3 4 -12 1 -19z m53 -75
c-11 -17 -11 -17 -6 0 3 10 7 26 7 35 1 15 2 15 6 0 2 -10 -1 -25 -7 -35z m30
-9 c0 -8 -5 -12 -10 -9 -6 4 -8 11 -5 16 9 14 15 11 15 -7z m-394 -16 c4 -7 3
-8 -4 -4 -16 9 -15 -7 0 -22 18 -18 -5 -15 -28 4 -10 8 -14 13 -8 10 7 -3 14
1 18 9 7 18 12 19 22 3z m239 -28 c-13 -14 -14 -20 -5 -20 7 0 11 -2 8 -5 -3
-3 -12 -3 -21 1 -14 5 -14 7 1 25 9 10 21 19 26 19 5 0 1 -9 -9 -20z m-264
-27 c13 -16 12 -17 -3 -4 -10 7 -18 15 -18 17 0 8 8 3 21 -13z m357 -24 c-10
-5 -18 -17 -18 -25 0 -18 -32 -15 -36 4 -1 7 0 8 3 2 7 -15 23 -12 23 4 0 14
14 24 35 25 6 0 2 -4 -7 -10z"/>
<path d="M4250 4690 c0 -5 5 -10 11 -10 5 0 7 5 4 10 -3 6 -8 10 -11 10 -2 0
-4 -4 -4 -10z"/>
<path d="M5321 4903 c3 -19 -2 -27 -10 -15 -6 10 -10 10 -21 -3 -8 -10 -9 -15
-1 -15 6 0 11 -5 11 -11 0 -6 -7 -8 -16 -5 -13 5 -15 -5 -14 -72 3 -105 2
-109 -16 -116 -8 -3 -12 -2 -9 4 3 6 -3 10 -14 10 -12 0 -21 -6 -21 -12 0 -10
-2 -10 -9 0 -14 22 -110 12 -140 -15 -22 -19 -24 -24 -11 -33 10 -6 11 -10 3
-10 -22 0 -14 -38 13 -59 22 -17 38 -20 117 -18 l92 2 0 -95 c0 -82 3 -97 21
-117 26 -28 75 -28 82 0 3 13 7 15 12 7 14 -23 32 60 28 131 l-4 69 91 0 c85
0 93 2 114 25 12 14 19 31 15 37 -4 7 -3 8 4 4 8 -5 11 0 9 15 -2 13 -9 25
-15 27 -7 2 -12 10 -12 17 0 7 -7 16 -16 19 -26 10 -172 7 -179 -4 -3 -5 -12
-10 -18 -9 -8 0 -8 2 1 6 10 4 10 8 1 19 -6 8 -15 12 -19 9 -4 -3 -10 4 -13
15 -5 18 -4 18 19 3 21 -14 24 -14 24 0 0 8 -6 18 -12 20 -10 4 -10 6 0 6 19
1 17 111 -3 111 -8 0 -15 5 -15 11 0 5 5 7 12 3 7 -4 8 -3 4 5 -6 9 -11 9 -22
0 -9 -7 -14 -8 -14 -1 0 6 5 14 11 18 8 4 7 9 -2 15 -17 11 -59 12 -58 2z m19
-53 c0 -5 -4 -10 -10 -10 -5 0 -10 5 -10 10 0 6 5 10 10 10 6 0 10 -4 10 -10z
m47 -92 c-2 -13 -4 -3 -4 22 0 25 2 35 4 23 2 -13 2 -33 0 -45z m-279 -153
c-3 -3 -9 2 -12 12 -6 14 -5 15 5 6 7 -7 10 -15 7 -18z m-26 -41 c-6 -12 -9
-7 -9 16 0 23 3 28 9 16 5 -9 5 -23 0 -32z m183 -3 c-3 -6 -14 -11 -23 -11
-15 1 -15 2 2 15 21 16 32 13 21 -4z m116 -22 c-9 -23 -9 -22 -8 8 1 18 6 28
10 24 4 -4 3 -18 -2 -32z m219 31 c0 -5 -10 -10 -22 -10 -19 0 -20 2 -8 10 19
13 30 13 30 0z m-380 -4 c0 -3 -4 -8 -10 -11 -5 -3 -10 -1 -10 4 0 6 5 11 10
11 6 0 10 -2 10 -4z m217 -22 c-3 -3 -12 -4 -19 -1 -8 3 -5 6 6 6 11 1 17 -2
13 -5z m126 -1 c-7 -2 -21 -2 -30 0 -10 3 -4 5 12 5 17 0 24 -2 18 -5z m-184
-137 c-9 -8 -10 -7 -5 7 3 10 7 35 8 55 1 35 2 35 5 -7 3 -26 -1 -48 -8 -55z
m25 -30 c-3 -9 -13 -16 -22 -16 -13 0 -12 3 4 19 22 21 27 21 18 -3z m-69 -56
c-3 -5 -11 -10 -16 -10 -6 0 -7 5 -4 10 3 6 11 10 16 10 6 0 7 -4 4 -10z"/>
<path d="M1048 3221 c10 -6 12 -37 10 -129 -2 -76 1 -123 7 -124 32 -5 88 -6
347 -7 245 -2 286 -4 281 -17 -6 -16 37 -20 53 -4 11 11 11 -40 0 -58 -4 -7
-4 -12 0 -12 20 0 -78 -80 -112 -91 -24 -7 -131 -14 -279 -18 l-240 -6 0 -140
0 -140 255 -1 c255 -2 353 8 370 36 4 6 11 10 16 9 21 -4 35 2 29 11 -3 5 0 7
8 4 8 -3 20 3 28 12 12 16 12 17 -3 11 -10 -3 -28 -2 -40 3 -17 6 -9 8 29 5
29 -3 55 0 58 5 18 29 42 28 76 -1 19 -16 41 -29 50 -29 9 0 22 -6 28 -13 15
-19 85 -39 107 -31 16 5 16 4 4 -5 -12 -9 -11 -11 10 -12 255 -9 494 -9 503 0
6 6 18 11 27 10 10 0 9 -3 -5 -9 -18 -8 -17 -9 7 -9 l26 -1 -1 140 c-1 79 2
140 7 140 5 0 6 3 3 6 -4 4 -13 1 -22 -6 -10 -8 -15 -9 -15 -2 0 8 -66 11
-207 11 -115 1 -226 5 -247 10 -46 11 -57 7 -50 -17 5 -14 4 -14 -4 -3 -6 8
-8 21 -4 30 3 9 2 13 -3 9 -4 -4 -14 0 -22 8 -9 8 -25 12 -37 9 -11 -2 -15 -2
-9 1 10 4 10 11 1 27 -11 21 -11 21 -18 2 -5 -13 -7 -5 -7 24 0 25 -6 47 -14
52 -7 4 -11 11 -7 14 3 4 160 6 347 5 271 0 341 2 341 12 0 10 2 10 9 -1 5 -7
13 -11 19 -7 14 8 16 286 3 286 -6 0 -12 -53 -14 -132 l-3 -133 -2 138 -2 137
-852 0 c-469 0 -847 -4 -840 -9z m659 -247 c-3 -3 -12 -4 -19 -1 -8 3 -5 6 6
6 11 1 17 -2 13 -5z m43 -8 c-7 -7 -13 -7 -20 0 -6 6 -3 10 10 10 13 0 16 -4
10 -10z m257 -8 c-3 -8 -6 -5 -6 6 -1 11 2 17 5 13 3 -3 4 -12 1 -19z m56 2
c-3 -12 -8 -19 -11 -16 -5 6 5 36 12 36 2 0 2 -9 -1 -20z m661 0 c-7 -7 -128
-9 -335 -7 l-324 2 328 3 c241 1 327 5 327 14 0 6 3 8 7 5 4 -4 2 -12 -3 -17z
m-701 -80 c-3 -11 -7 -20 -9 -20 -2 0 -4 9 -4 20 0 11 4 20 9 20 5 0 7 -9 4
-20z m4 -56 c-3 -3 -12 -4 -19 -1 -8 3 -5 6 6 6 11 1 17 -2 13 -5z m-312 -24
c-10 -11 -22 -20 -27 -20 -10 0 24 38 36 39 5 1 1 -8 -9 -19z m19 -25 c-4 -9
0 -15 10 -15 9 0 16 -5 16 -10 0 -7 -6 -7 -20 0 -20 11 -28 40 -10 40 5 0 7
-7 4 -15z m405 -12 c7 -5 -44 -21 -51 -16 -4 2 -2 12 4 23 10 15 15 17 28 7 8
-6 17 -13 19 -14z m-446 4 c4 3 7 1 7 -5 0 -17 -16 -15 -31 6 -12 15 -12 16 2
5 9 -7 19 -10 22 -6z m-43 -17 c-8 -5 -19 -10 -25 -10 -5 0 -3 5 5 10 8 5 20
10 25 10 6 0 3 -5 -5 -10z m206 -160 c0 -12 -4 -16 -9 -11 -5 5 -6 14 -3 20
10 15 12 14 12 -9z m-111 -20 c-3 -5 -10 -10 -16 -10 -5 0 -9 5 -9 10 0 6 7
10 16 10 8 0 12 -4 9 -10z m335 0 c0 -5 -8 -10 -17 -10 -15 0 -16 2 -3 10 19
12 20 12 20 0z m-36 -19 c4 -5 -3 -7 -14 -4 -23 6 -26 13 -6 13 8 0 17 -4 20
-9z"/>
<path d="M2095 2760 c-3 -6 1 -7 9 -4 18 7 21 14 7 14 -6 0 -13 -4 -16 -10z"/>
<path d="M3085 3078 c-3 -13 -4 -79 -3 -148 l3 -125 284 -3 c221 -2 287 1 294
10 7 11 10 11 14 0 4 -10 70 -12 305 -12 165 1 302 -1 305 -4 3 -3 4 -167 4
-364 l-2 -360 190 -1 c123 -1 191 2 196 8 3 6 3 11 -2 11 -4 0 -8 221 -8 490
0 270 3 490 7 490 4 0 5 7 2 15 -6 14 -8 13 -21 -2 -14 -17 -14 -17 -9 0 5 16
-36 17 -774 17 l-780 0 -5 -22z m27 -181 c2 -48 0 -87 -4 -87 -5 0 -7 57 -6
128 2 130 6 115 10 -41z m1208 -81 c0 -3 -4 -8 -10 -11 -5 -3 -10 -1 -10 4 0
6 5 11 10 11 6 0 10 -2 10 -4z"/>
<path d="M5037 3094 c-9 -9 -9 -1530 -1 -1561 l6 -23 519 0 c487 0 519 1 520
18 0 14 2 14 7 2 4 -8 18 -16 32 -18 17 -1 21 1 11 7 -9 6 -10 11 -2 15 7 5
10 49 9 129 l-2 122 -6 -125 -6 -125 -2 126 c-2 102 -5 128 -17 133 -8 3 -15
0 -15 -7 0 -9 -2 -9 -8 1 -7 10 -77 12 -335 10 -180 -2 -328 0 -329 5 0 4 -1
13 -2 20 -1 6 -10 18 -21 25 -19 12 -19 13 3 7 l22 -6 -2 623 -3 623 -186 3
c-102 1 -188 -1 -192 -4z m373 -23 c0 -3 -11 -6 -24 -6 -18 0 -22 3 -14 12 9
11 38 7 38 -6z m-43 -1243 c-3 -8 -6 -5 -6 6 -1 11 2 17 5 13 3 -3 4 -12 1
-19z m33 -35 c0 -19 -13 -9 -16 12 -1 8 2 13 7 9 5 -3 9 -12 9 -21z"/>
<path d="M6316 3093 c-3 -4 -6 -342 -6 -751 1 -409 -1 -747 -4 -750 -3 -3 -6
-12 -6 -21 0 -13 2 -14 9 -2 7 10 9 6 8 -13 -1 -16 -7 -24 -14 -21 -11 4 -18
-14 -14 -37 0 -4 -10 -19 -24 -32 -24 -24 -33 -48 -17 -44 4 0 15 -2 26 -7 11
-5 21 -4 25 3 4 7 14 6 31 -4 23 -14 23 -14 3 -9 -36 10 -27 -3 13 -20 41 -17
56 -19 34 -5 -8 5 -10 10 -5 10 14 0 42 -19 30 -21 -5 0 -1 -4 10 -8 12 -5 26
-4 34 3 12 9 13 8 8 -7 -8 -20 8 -23 20 -3 5 9 15 11 28 5 19 -7 19 -8 -2 -8
-27 -1 -30 -16 -6 -25 11 -4 22 -1 29 8 6 9 15 16 20 16 4 0 3 -5 -3 -11 -14
-14 3 -36 29 -36 13 0 15 5 8 17 -9 16 -8 45 1 54 3 3 11 -4 18 -16 11 -18 11
-20 -3 -15 -17 7 -22 -8 -7 -18 18 -11 81 106 81 150 0 14 5 25 10 25 6 0 10
7 10 16 0 8 -4 12 -10 9 -6 -3 -10 4 -10 17 0 17 3 19 9 10 17 -27 21 53 20
368 0 203 -4 319 -11 327 -8 10 -5 13 13 12 13 0 18 -3 11 -6 -6 -2 -9 -9 -6
-14 6 -11 284 -11 284 0 0 4 -4 11 -9 16 -12 12 -19 255 -8 248 4 -2 7 -58 7
-124 0 -73 4 -119 10 -119 6 0 10 -8 11 -17 0 -15 2 -15 9 2 12 28 12 257 0
275 -8 12 -10 12 -10 -5 0 -14 -3 -16 -9 -7 -6 10 -40 12 -144 10 -76 -2 -137
0 -137 4 0 4 -9 10 -20 13 -11 3 -20 11 -20 16 0 6 4 8 9 5 18 -11 21 29 21
254 0 225 -5 290 -21 290 -5 0 -6 -7 -3 -15 4 -8 1 -15 -5 -15 -6 0 -11 7 -11
15 0 13 -25 15 -168 15 -93 0 -172 -3 -176 -7z m370 -510 c-3 -7 -11 -13 -18
-12 -10 0 -10 2 0 6 9 3 13 64 14 246 l3 242 2 -235 c2 -129 1 -240 -1 -247z
m-39 -35 c-3 -8 -6 -5 -6 6 -1 11 2 17 5 13 3 -3 4 -12 1 -19z m53 -36 c0 -4
-11 -7 -25 -7 -29 0 -34 12 -7 18 19 4 32 0 32 -11z m-20 -306 c0 -8 -4 -17
-8 -20 -4 -2 -8 4 -8 15 0 10 4 19 8 19 4 0 8 -6 8 -14z m-33 -18 c-3 -8 -6
-5 -6 6 -1 11 2 17 5 13 3 -3 4 -12 1 -19z m40 -370 c-1 -68 -3 -13 -3 122 0
135 2 190 3 123 2 -68 2 -178 0 -245z m-367 -318 c0 -5 -2 -10 -4 -10 -3 0 -8
5 -11 10 -3 6 -1 10 4 10 6 0 11 -4 11 -10z m-25 -40 c3 -5 -1 -10 -10 -10 -9
0 -13 5 -10 10 3 6 8 10 10 10 2 0 7 -4 10 -10z m95 -10 c-8 -5 -19 -10 -25
-10 -5 0 -3 5 5 10 8 5 20 10 25 10 6 0 3 -5 -5 -10z m-43 -16 c-3 -3 -12 -4
-19 -1 -8 3 -5 6 6 6 11 1 17 -2 13 -5z m53 -24 c0 -5 -4 -10 -9 -10 -6 0 -13
5 -16 10 -3 6 1 10 9 10 9 0 16 -4 16 -10z m140 -40 c0 -13 -11 -13 -30 0 -12
8 -11 10 8 10 12 0 22 -4 22 -10z m90 6 c0 -3 -4 -8 -10 -11 -5 -3 -10 -1 -10
4 0 6 5 11 10 11 6 0 10 -2 10 -4z"/>
<path d="M7164 3087 c-2 -7 -3 -74 -2 -148 l3 -134 362 -3 362 -2 -2 -136 c-2
-123 -4 -137 -22 -150 -12 -9 -21 -11 -23 -4 -3 7 -113 10 -343 10 l-339 -1 0
-504 0 -504 554 0 554 0 1 127 c1 71 -1 136 -5 145 -6 16 -36 17 -356 17 -193
-1 -352 1 -355 3 -5 6 -5 418 0 424 3 2 154 4 336 3 182 0 342 2 356 6 l26 6
-1 424 c-1 373 -7 479 -23 417 -4 -17 -5 -17 -6 0 -1 16 -34 17 -536 17 -430
0 -537 -3 -541 -13z m1083 -630 c-1 -111 -2 -20 -2 203 0 223 1 314 2 203 2
-112 2 -294 0 -406z m-332 93 c-3 -5 -12 -10 -18 -10 -7 0 -6 4 3 10 19 12 23
12 15 0z m2 -46 c-3 -3 -12 -4 -19 -1 -8 3 -5 6 6 6 11 1 17 -2 13 -5z m-337
-253 c0 -5 -9 -7 -20 -4 -11 3 -20 7 -20 9 0 2 9 4 20 4 11 0 20 -4 20 -9z
m667 -658 c-2 -37 -3 -9 -3 62 0 72 1 102 3 68 2 -34 2 -93 0 -130z"/>
<path d="M8445 3078 c-8 -34 -11 -1540 -3 -1520 5 14 7 14 7 1 1 -8 -7 -24
-18 -35 -10 -11 -24 -31 -30 -45 -11 -23 -11 -23 3 -5 9 11 16 15 16 9 0 -6
-12 -20 -27 -31 -16 -12 -24 -24 -19 -29 5 -4 11 -2 13 5 3 6 9 12 14 12 4 0
6 -7 3 -15 -5 -12 -2 -12 25 1 17 9 37 13 44 11 6 -3 3 -6 -8 -6 -17 -1 -18
-3 -5 -12 12 -8 10 -9 -7 -4 -12 3 -24 1 -28 -5 -4 -7 -1 -10 6 -8 8 1 36 -8
62 -21 46 -22 75 -24 122 -6 14 5 16 4 6 -3 -7 -5 -9 -12 -5 -14 5 -3 3 -3 -4
-1 -31 8 -32 -11 -1 -24 22 -9 35 -10 37 -3 2 5 8 10 14 10 6 0 8 -6 5 -14 -4
-10 5 -18 25 -25 25 -9 29 -8 24 4 -3 8 0 15 7 15 18 0 50 58 43 76 -3 8 -1
12 4 9 14 -9 40 61 47 125 11 113 14 680 3 680 -6 0 -8 -5 -4 -12 5 -7 3 -8
-6 -3 -17 10 14 35 44 36 58 1 111 10 114 19 2 6 8 8 13 4 5 -3 35 2 66 11 53
16 56 18 38 31 -10 8 -15 14 -9 14 5 0 2 5 -6 10 -11 7 -5 8 20 3 19 -3 36
-10 38 -14 2 -5 22 1 44 12 25 13 38 25 34 34 -3 9 0 12 10 8 8 -3 24 3 35 13
20 18 20 19 2 32 -16 12 -15 13 9 7 22 -6 29 -2 42 22 8 15 15 24 16 18 0 -5
14 6 31 24 l31 34 -33 18 c-19 10 -30 18 -26 19 10 0 -47 50 -58 50 -3 0 -3
-6 1 -12 4 -8 3 -10 -2 -5 -5 5 -9 14 -9 20 0 7 -11 12 -25 12 -17 1 -24 6
-22 16 1 8 -13 28 -30 45 -18 16 -27 22 -20 14 17 -20 15 -35 -3 -20 -11 9
-15 9 -15 1 0 -7 -4 -10 -9 -7 -5 3 -24 -11 -43 -32 -19 -20 -46 -43 -61 -51
-14 -8 -23 -19 -20 -24 4 -6 -1 -8 -11 -4 -13 5 -17 3 -13 -7 4 -9 -9 -19 -39
-31 -25 -9 -47 -15 -50 -13 -2 3 14 11 36 18 52 17 41 32 -13 17 -53 -15 -101
-11 -93 8 3 8 -3 19 -12 25 -16 11 -16 11 1 6 16 -5 17 12 16 257 0 144 -4
253 -8 243 -5 -14 -10 -16 -15 -8 -4 7 -4 17 -1 22 4 7 -52 10 -159 10 -151 0
-166 -2 -166 -17 0 -10 0 -328 0 -707 0 -379 -2 -687 -5 -685 -2 3 -5 321 -5
707 -1 643 -5 764 -25 680z m665 -453 c-7 -8 -18 -15 -24 -15 -6 0 -2 7 8 15
25 19 32 19 16 0z m10 -30 c0 -9 -6 -12 -16 -8 -13 5 -13 7 -2 14 17 11 18 11
18 -6z m105 -13 c-3 -3 -11 0 -18 7 -9 10 -8 11 6 5 10 -3 15 -9 12 -12z m76
-29 c13 -16 12 -17 -3 -4 -17 13 -22 21 -14 21 2 0 10 -8 17 -17z m-270 -26
c-6 -8 -8 -17 -4 -20 3 -4 1 -7 -5 -7 -6 0 -14 5 -17 10 -3 6 -1 10 5 10 6 0
8 5 5 10 -3 6 1 10 11 10 13 0 14 -3 5 -13z m300 -12 c5 4 6 -1 3 -9 -9 -24
-31 -27 -28 -3 3 31 5 34 11 19 2 -6 9 -10 14 -7z m-91 -130 c0 -8 -2 -15 -4
-15 -2 0 -6 7 -10 15 -3 8 -1 15 4 15 6 0 10 -7 10 -15z m-180 -95 c0 -5 -2
-10 -4 -10 -3 0 -8 5 -11 10 -3 6 -1 10 4 10 6 0 11 -4 11 -10z m-180 -34 c0
-2 -7 -6 -15 -10 -8 -3 -15 -1 -15 4 0 6 7 10 15 10 8 0 15 -2 15 -4z m-413
-668 c-3 -7 -5 -2 -5 12 0 14 2 19 5 13 2 -7 2 -19 0 -25z m5 -100 c-5 -23
-19 -38 -35 -38 -5 0 -1 7 7 16 9 8 16 22 16 30 0 8 4 14 9 14 5 0 7 -10 3
-22z m275 -50 c-3 -8 -6 -5 -6 6 -1 11 2 17 5 13 3 -3 4 -12 1 -19z m34 -1
c-10 -9 -11 -8 -5 6 3 10 9 15 12 12 3 -3 0 -11 -7 -18z m-50 -61 c-7 -8 -9
-21 -5 -27 4 -8 3 -9 -4 -5 -15 9 -16 36 -1 36 6 0 8 7 4 18 -5 13 -4 14 6 5
10 -10 9 -15 0 -27z m-174 -2 c-3 -3 -12 -4 -19 -1 -8 3 -5 6 6 6 11 1 17 -2
13 -5z m133 -14 c0 -5 -10 -10 -22 -10 -19 0 -20 2 -8 10 19 13 30 13 30 0z"/>
<path d="M1059 2941 c21 -14 621 -14 621 -1 0 7 -106 10 -317 10 -195 0 -312
-4 -304 -9z"/>
<path d="M729 2483 c-8 -9 -8 -13 0 -13 6 0 11 -5 11 -11 0 -8 -4 -8 -15 1
-12 10 -23 4 -64 -30 -47 -40 -49 -44 -36 -64 8 -11 15 -25 15 -31 0 -5 -5 -3
-11 5 -8 11 -12 12 -16 3 -2 -7 -9 -13 -15 -13 -6 0 -3 8 6 19 15 16 15 19 2
24 -10 4 -25 -6 -42 -29 l-27 -35 43 -44 c24 -24 48 -41 53 -38 6 3 7 2 4 -4
-6 -9 2 -18 57 -60 27 -21 53 -23 41 -2 -4 5 1 9 9 9 19 0 21 -16 4 -24 -20
-7 20 -36 40 -29 10 4 14 2 9 -2 -4 -5 10 -17 30 -26 42 -20 67 -24 58 -9 -3
6 1 7 9 4 9 -3 13 -10 10 -15 -5 -9 30 -13 69 -10 9 1 17 -3 17 -9 0 -6 10
-11 23 -10 12 1 174 2 360 1 l337 -1 0 -61 c0 -54 2 -60 15 -49 18 15 20 86 3
93 -7 3 -4 5 7 4 18 -1 20 -8 20 -68 0 -37 -4 -65 -8 -62 -4 2 -5 14 -1 26 6
22 6 22 -19 -1 -14 -13 -26 -19 -28 -13 -5 13 -129 -43 -129 -59 0 -5 -3 -9
-7 -7 -5 1 -8 -3 -8 -8 0 -6 6 -9 12 -9 7 1 11 -2 8 -6 -3 -5 -1 -11 5 -15 13
-8 3 -25 -13 -25 -8 0 -7 3 2 9 11 7 10 11 -6 20 -11 5 -23 7 -27 4 -3 -3 -6
0 -6 8 0 7 -29 -17 -65 -54 -37 -37 -63 -72 -60 -77 3 -6 1 -10 -5 -10 -13 0
-51 -61 -44 -72 3 -4 1 -8 -4 -8 -17 0 -21 -40 -6 -54 8 -8 14 -21 14 -28 0
-7 -10 -2 -21 12 -20 24 -21 24 -16 3 3 -13 1 -23 -3 -23 -21 0 -37 -179 -24
-267 6 -42 8 -45 20 -28 16 22 18 12 4 -16 -12 -21 6 -99 22 -99 5 0 6 -4 3
-10 -3 -5 -1 -10 5 -10 6 0 9 -4 6 -8 -7 -13 9 -33 29 -36 11 -2 21 -8 23 -14
2 -8 -3 -10 -13 -6 -13 5 -12 1 5 -28 23 -39 46 -62 73 -71 20 -7 22 4 5 21
-7 7 -9 12 -6 12 4 0 17 -14 29 -32 13 -17 16 -28 8 -23 -7 5 -22 11 -33 12
-10 2 4 -16 35 -42 30 -24 59 -43 66 -40 7 2 15 -1 19 -7 4 -7 3 -8 -4 -4 -7
4 -12 4 -12 1 0 -10 129 -67 139 -61 5 3 11 2 13 -4 2 -6 22 -11 45 -13 24 -1
43 -5 43 -9 0 -13 78 -9 84 5 5 10 7 10 12 0 7 -16 42 -16 116 -1 41 8 57 16
54 25 -6 15 6 17 20 3 6 -6 15 -5 24 1 12 9 12 10 -3 5 -11 -4 -16 -2 -11 5 3
6 16 8 27 5 21 -5 77 21 77 37 0 4 4 6 8 3 11 -7 69 41 60 50 -4 4 -14 1 -23
-6 -10 -8 -15 -9 -15 -1 0 6 5 11 10 11 6 0 10 8 10 18 0 14 2 15 10 2 12 -19
31 -20 52 -2 13 11 15 19 7 34 -6 10 -8 24 -5 31 2 7 8 2 11 -10 10 -30 15
-29 47 11 20 25 24 36 15 45 -8 8 -8 14 0 22 8 8 13 7 18 -2 5 -8 4 -10 -3 -5
-7 4 -12 2 -12 -3 0 -18 19 -12 29 8 11 19 0 37 -24 41 -5 1 -12 4 -15 7 -3 4
0 3 7 0 6 -4 14 -1 16 5 4 10 6 10 6 0 1 -7 6 -10 13 -6 7 5 9 2 4 -7 -4 -8 2
-3 13 11 12 15 18 33 15 44 -4 13 -3 16 6 11 9 -6 11 -4 5 5 -4 7 -2 16 5 20
12 8 23 57 24 115 0 17 5 33 10 37 12 8 -12 190 -26 199 -5 3 -9 12 -8 20 1 8
2 19 1 24 -1 14 -41 17 -41 3 0 -6 -2 -9 -5 -6 -11 10 7 37 21 31 8 -3 14 -3
14 0 0 13 -54 107 -61 107 -15 0 -10 -19 9 -29 9 -6 12 -11 6 -11 -21 0 -38
29 -25 43 8 11 5 19 -14 35 -23 20 -30 17 -26 -10 0 -5 -9 -8 -21 -8 -21 1
-21 2 -5 11 9 5 17 19 17 30 0 24 -26 53 -40 44 -5 -3 -14 5 -19 18 -15 39
-32 44 -26 7 4 -21 2 -29 -5 -25 -6 4 -9 12 -7 19 7 18 -11 56 -28 56 -8 0
-15 5 -15 11 0 8 -6 7 -17 -2 -15 -12 -16 -12 -11 3 7 16 -10 26 -69 43 -18 5
-22 14 -25 61 -1 31 -1 58 1 60 2 2 161 4 353 4 251 0 348 3 348 11 0 8 4 8
13 2 6 -5 22 -10 33 -11 21 -1 21 4 23 137 2 126 1 138 -16 139 -10 0 -403 1
-875 1 -534 1 -858 4 -860 10 -1 6 -42 11 -90 13 -48 1 -82 5 -77 8 5 4 -16
17 -47 30 -43 17 -58 20 -64 10 -5 -7 -10 -8 -14 -2 -3 5 1 13 10 16 25 9 -1
35 -29 29 -16 -3 -18 -2 -9 5 11 7 9 10 -7 15 -12 3 -22 -1 -25 -9 -3 -8 -10
-14 -16 -14 -6 0 -2 9 9 21 12 13 24 18 33 13 7 -4 5 2 -5 13 -20 23 -43 25
-58 6z m147 -132 c-13 -13 -18 -13 -28 -2 -10 11 -10 12 0 7 20 -12 35 4 20
22 -12 15 -11 16 5 3 16 -13 16 -16 3 -30z m-46 15 c0 -2 -8 -10 -17 -17 -16
-13 -17 -12 -4 4 13 16 21 21 21 13z m90 -16 c0 -5 -5 -10 -11 -10 -5 0 -7 5
-4 10 3 6 8 10 11 10 2 0 4 -4 4 -10z m-318 -68 c-4 -20 -6 -22 -14 -9 -5 9
-16 20 -24 25 -12 6 -8 9 14 9 25 0 28 -3 24 -25z m28 -2 c0 -5 -5 -10 -11
-10 -5 0 -7 5 -4 10 3 6 8 10 11 10 2 0 4 -4 4 -10z m45 -41 c7 -7 2 -7 -15
-1 -14 5 -31 7 -37 5 -7 -3 -13 0 -13 6 0 12 51 4 65 -10z m45 -9 c0 -11 -4
-20 -9 -20 -5 0 -7 9 -4 20 3 11 7 20 9 20 2 0 4 -9 4 -20z m-6 -43 c4 4 4 0
0 -10 -5 -14 -9 -15 -20 -6 -8 6 -14 16 -14 21 0 7 5 6 13 -1 8 -6 17 -8 21
-4z m81 -26 c3 -5 2 -12 -3 -15 -5 -3 -9 1 -9 9 0 17 3 19 12 6z m947 -84 c3
-17 -1 -22 -19 -23 -12 -1 -20 2 -17 7 3 5 4 10 2 11 -2 1 -133 5 -293 8
l-290 6 302 0 c165 -1 296 2 290 6 -8 5 -6 8 4 8 9 0 19 -10 21 -23z m398 7
c0 -3 -13 -3 -29 -2 -16 1 -28 5 -26 9 5 6 55 0 55 -7z m691 -3 c4 7 11 10 16
6 4 -5 1 -12 -7 -17 -9 -6 -19 -5 -24 0 -6 6 -145 11 -335 12 l-326 3 325 5
c269 4 327 3 334 -9 7 -11 10 -11 17 0z m-1884 3 c-3 -3 -12 -4 -19 -1 -8 3
-5 6 6 6 11 1 17 -2 13 -5z m82 -10 c10 -9 -35 -3 -49 6 -11 8 -7 9 15 4 17
-4 32 -8 34 -10z m1081 -8 c0 -11 -19 -15 -25 -6 -3 5 1 10 9 10 9 0 16 -2 16
-4z m-997 -13 c-7 -2 -19 -2 -25 0 -7 3 -2 5 12 5 14 0 19 -2 13 -5z m982
-143 c3 -5 1 -10 -4 -10 -6 0 -11 5 -11 10 0 6 2 10 4 10 3 0 8 -4 11 -10z
m-421 -26 c-16 -13 -16 -15 -2 -10 10 3 20 1 23 -4 7 -11 -15 -13 -39 -4 -21
8 -20 21 2 27 32 9 36 7 16 -9z m496 -14 c0 -3 -6 -7 -13 -7 -7 0 -13 8 -13
18 0 13 3 15 13 7 7 -6 13 -14 13 -18z m-73 -2 c-3 -8 -6 -5 -6 6 -1 11 2 17
5 13 3 -3 4 -12 1 -19z m-347 2 c0 -5 -5 -10 -11 -10 -5 0 -7 5 -4 10 3 6 8
10 11 10 2 0 4 -4 4 -10z m-123 -6 c-3 -3 -12 -4 -19 -1 -8 3 -5 6 6 6 11 1
17 -2 13 -5z m-114 -107 c4 3 7 4 7 2 0 -3 -15 -18 -32 -35 -18 -16 -30 -25
-26 -20 4 5 0 14 -9 21 -13 9 -13 14 -3 20 9 5 11 4 6 -3 -9 -16 7 -15 22 0
15 15 16 31 0 22 -7 -5 -8 -3 -3 6 6 10 11 10 20 -3 7 -9 15 -14 18 -10z m825
-22 c-3 -3 -9 2 -12 12 -6 14 -5 15 5 6 7 -7 10 -15 7 -18z m-908 -75 c5 8 7
3 7 -13 -1 -15 -7 -27 -14 -27 -7 0 -10 7 -6 17 5 12 2 15 -10 10 -9 -3 -19
-1 -23 5 -4 6 -3 8 4 4 6 -3 14 -1 18 6 6 9 9 9 12 -1 4 -11 6 -11 12 -1z
m995 -41 c11 -16 1 -19 -13 -3 -7 8 -8 14 -3 14 5 0 13 -5 16 -11z m-705 -32
c11 -21 11 -21 -4 -3 -9 11 -19 17 -22 13 -4 -4 -1 -13 5 -21 8 -9 8 -16 2
-20 -5 -4 -11 -3 -13 1 -4 7 -4 14 0 51 2 17 19 6 32 -21z m26 10 c1 -9 -2
-15 -7 -11 -5 3 -7 9 -4 14 3 4 0 11 -5 13 -6 3 -5 4 1 3 7 -1 13 -10 15 -19z
m273 7 c-6 -8 -2 -13 13 -17 13 -4 24 -5 25 -4 1 1 19 -17 39 -40 34 -39 38
-41 51 -25 10 13 13 14 11 2 -2 -8 -7 -18 -12 -21 -5 -4 6 -27 23 -53 18 -25
28 -46 22 -46 -6 0 -8 -23 -7 -53 4 -69 -22 -139 -73 -194 -23 -26 -33 -43
-24 -43 8 0 12 -4 9 -9 -3 -4 -16 -6 -29 -4 -15 3 -31 -2 -42 -13 -26 -26
-176 -26 -224 -1 -18 10 -30 13 -26 7 18 -29 -34 17 -74 66 -31 37 -47 50 -53
41 -6 -9 -8 -9 -8 0 0 6 5 15 10 18 7 4 7 11 2 18 -5 7 -12 25 -16 41 -6 23
-9 27 -17 15 -5 -9 -9 -9 -9 -2 0 6 5 15 10 18 14 9 12 58 -2 74 -8 9 -9 11
-1 7 7 -4 18 13 30 46 23 68 102 150 158 166 50 15 73 17 157 17 48 0 64 -3
57 -11z m38 1 c0 -8 -4 -12 -9 -9 -5 3 -6 10 -3 15 9 13 12 11 12 -6z m90 -21
c-9 -9 -28 6 -21 18 4 6 10 6 17 -1 6 -6 8 -13 4 -17z m260 -6 c-3 -8 -6 -5
-6 6 -1 11 2 17 5 13 3 -3 4 -12 1 -19z m-265 -29 c-9 -3 -24 3 -34 13 -26 26
-23 28 16 9 24 -12 29 -18 18 -22z m-535 -71 c-3 -8 -6 -5 -6 6 -1 11 2 17 5
13 3 -3 4 -12 1 -19z m-261 -17 c12 10 13 9 8 -5 -5 -14 -34 -24 -34 -12 0 2
-3 13 -6 23 -5 17 -5 17 6 0 9 -14 15 -16 26 -6z m281 -3 c-3 -8 -6 -5 -6 6
-1 11 2 17 5 13 3 -3 4 -12 1 -19z m603 -9 c0 8 3 12 6 8 3 -3 -1 -16 -10 -29
l-16 -22 0 29 c0 23 3 27 10 15 8 -12 10 -12 10 -1z m-617 -29 c-3 -12 -8 -19
-11 -16 -5 6 5 36 12 36 2 0 2 -9 -1 -20z m-296 -12 c-3 -8 -6 -5 -6 6 -1 11
2 17 5 13 3 -3 4 -12 1 -19z m30 -20 c-3 -8 -6 -5 -6 6 -1 11 2 17 5 13 3 -3
4 -12 1 -19z m1160 0 c-3 -8 -6 -5 -6 6 -1 11 2 17 5 13 3 -3 4 -12 1 -19z
m-1159 -58 c-2 -6 -8 -6 -18 0 -13 9 -13 11 0 20 15 10 25 0 18 -20z m259 -2
c-3 -7 -5 -2 -5 12 0 14 2 19 5 13 2 -7 2 -19 0 -25z m613 10 c0 -16 -3 -19
-11 -11 -6 6 -8 16 -5 22 11 17 16 13 16 -11z m-6 -62 c-10 -26 -23 -18 -22
13 1 25 3 27 14 16 8 -7 11 -21 8 -29z m23 -3 c-3 -10 -5 -4 -5 12 0 17 2 24
5 18 2 -7 2 -21 0 -30z m260 -10 c-3 -10 -5 -4 -5 12 0 17 2 24 5 18 2 -7 2
-21 0 -30z m-1144 -30 c5 -26 4 -26 -9 -8 -15 21 -19 49 -5 41 5 -3 11 -18 14
-33z m265 -16 c-13 -13 -15 -12 -15 14 0 26 2 28 15 15 13 -13 13 -16 0 -29z
m56 -52 c5 0 11 -6 14 -13 5 -15 -17 -12 -35 5 -17 15 -17 27 0 16 6 -4 16 -8
21 -8z m-321 -19 c4 -10 1 -13 -8 -9 -8 3 -12 9 -9 14 7 12 11 11 17 -5z m787
3 c0 -5 6 -7 13 -3 7 4 9 3 4 -2 -5 -5 -10 -7 -11 -4 -2 3 -10 -1 -19 -9 -18
-14 -20 -12 -11 13 7 18 24 22 24 5z m310 -30 c-13 -24 -16 -24 -22 -1 -4 12
1 18 13 19 16 2 17 -2 9 -18z m-733 -6 c0 -9 -4 -10 -14 -2 -7 6 -13 12 -13
14 0 1 6 2 13 2 8 0 14 -6 14 -14z m410 -25 c-3 -8 -6 -5 -6 6 -1 11 2 17 5
13 3 -3 4 -12 1 -19z m-422 -26 c-3 -3 -11 0 -18 7 -9 10 -8 11 6 5 10 -3 15
-9 12 -12z m355 14 c0 -2 -7 -7 -16 -10 -8 -3 -12 -2 -9 4 6 10 25 14 25 6z
m47 -2 c-3 -3 -12 -4 -19 -1 -8 3 -5 6 6 6 11 1 17 -2 13 -5z m-669 -59 c-3
-3 -9 2 -12 12 -6 14 -5 15 5 6 7 -7 10 -15 7 -18z m10 -41 c2 -1 -1 -5 -7 -8
-5 -4 -15 4 -22 16 -12 22 -11 22 7 8 10 -8 20 -15 22 -16z m917 -5 c11 -16 1
-19 -13 -3 -7 8 -8 14 -3 14 5 0 13 -5 16 -11z m-908 -24 c0 -8 -4 -12 -9 -9
-5 3 -6 10 -3 15 9 13 12 11 12 -6z m63 -6 c0 -6 -4 -7 -10 -4 -5 3 -10 11
-10 16 0 6 5 7 10 4 6 -3 10 -11 10 -16z m25 -50 c-4 -6 -1 -9 6 -8 8 1 23 -2
33 -6 19 -8 19 -9 0 -15 -11 -4 -24 -1 -32 7 -8 7 -19 10 -25 6 -7 -4 -6 1 2
10 15 19 26 23 16 6z m155 -100 c-12 -9 -10 -10 9 -5 17 3 21 2 13 -6 -12 -12
-42 -4 -42 12 0 5 8 10 18 10 15 0 15 -2 2 -11z m420 7 c0 -3 -4 -8 -10 -11
-5 -3 -10 -1 -10 4 0 6 5 11 10 11 6 0 10 -2 10 -4z m-360 -26 c0 -5 -4 -10
-10 -10 -5 0 -10 5 -10 10 0 6 5 10 10 10 6 0 10 -4 10 -10z"/>
<path d="M9105 2300 c3 -5 8 -10 11 -10 2 0 4 5 4 10 0 6 -5 10 -11 10 -5 0
-7 -4 -4 -10z"/>
<path d="M3627 2132 c-17 -3 -18 -17 -14 -190 2 -103 7 -200 11 -217 4 -17 4
-25 -1 -18 -6 9 -59 12 -196 10 -103 -1 -187 1 -187 6 0 4 -12 7 -27 7 -16 0
-35 5 -43 10 -10 6 -23 4 -40 -7 -15 -9 -20 -10 -12 -2 15 16 16 29 1 29 -6 0
-24 9 -40 21 -26 18 -28 19 -22 2 6 -17 5 -17 -15 1 -12 11 -22 28 -22 38 0
11 -4 17 -8 14 -5 -3 -16 8 -26 25 -17 29 -53 42 -43 15 4 -9 1 -13 -6 -11 -7
3 -28 -9 -47 -26 -19 -17 -28 -27 -20 -23 11 5 12 4 4 -5 -6 -7 -18 -13 -25
-15 -27 -4 -59 -27 -59 -42 0 -8 -4 -13 -9 -9 -6 3 -13 -1 -18 -8 -4 -8 -14
-16 -22 -18 -10 -4 -6 -13 14 -37 15 -18 32 -29 37 -25 6 3 8 1 5 -4 -4 -6 2
-21 13 -33 16 -19 22 -21 35 -10 9 7 18 10 22 6 3 -3 1 -6 -4 -6 -15 0 -9 -33
7 -38 8 -3 10 0 5 8 -5 9 -4 11 4 6 6 -4 9 -11 6 -16 -6 -10 48 -50 67 -49 7
0 4 4 -7 9 -13 6 -15 9 -5 9 8 0 24 -7 35 -16 16 -13 17 -15 3 -10 -10 4 -18
2 -18 -3 0 -13 37 -22 63 -15 17 5 19 4 7 -4 -8 -6 -10 -11 -5 -12 6 -1 15 -2
20 -3 6 0 20 -7 33 -14 12 -7 33 -10 45 -7 18 5 19 4 7 -5 -12 -9 -3 -10 38
-7 32 2 48 1 40 -4 -7 -5 357 -9 810 -9 l822 0 0 145 0 144 -417 1 c-229 0
-419 3 -422 6 -3 3 -6 98 -6 210 l0 204 -165 0 -165 0 3 -162 c2 -90 -1 -190
-6 -223 -5 -41 -7 1 -4 130 5 204 -1 253 -31 247z m-646 -279 c13 -16 12 -17
-3 -4 -17 13 -22 21 -14 21 2 0 10 -8 17 -17z m-57 -17 c-3 -9 -12 -16 -20
-16 -11 0 -10 4 4 18 20 22 25 21 16 -2z m81 -15 c3 -5 1 -12 -4 -15 -5 -3
-11 1 -15 9 -6 16 9 21 19 6z m-32 -15 c4 -10 0 -12 -14 -9 -22 6 -26 23 -5
23 8 0 16 -6 19 -14z m97 -56 c-8 -5 -19 -10 -25 -10 -5 0 -3 5 5 10 8 5 20
10 25 10 6 0 3 -5 -5 -10z m109 -29 c10 -7 7 -9 -12 -8 -14 1 -23 5 -20 10 6
9 15 9 32 -2z m-399 -21 c-13 -8 -12 -10 4 -10 11 0 17 -3 13 -6 -3 -4 -13 -4
-22 0 -18 6 -11 26 8 26 7 0 6 -4 -3 -10z m327 4 c-3 -3 -12 -4 -19 -1 -8 3
-5 6 6 6 11 1 17 -2 13 -5z m200 0 c-3 -3 -12 -4 -19 -1 -8 3 -5 6 6 6 11 1
17 -2 13 -5z m-374 -111 c-5 -13 -2 -15 13 -9 14 5 16 4 7 -5 -15 -15 -33 -3
-33 22 0 11 4 18 10 14 5 -3 6 -13 3 -22z m-12 -40 c13 -16 12 -17 -3 -4 -17
13 -22 21 -14 21 2 0 10 -8 17 -17z m109 -17 c0 -2 -7 -9 -15 -16 -13 -11 -14
-10 -9 4 5 14 24 23 24 12z m50 0 c0 -3 -4 -8 -10 -11 -5 -3 -10 -1 -10 4 0 6
5 11 10 11 6 0 10 -2 10 -4z m37 -18 c-3 -8 -6 -5 -6 6 -1 11 2 17 5 13 3 -3
4 -12 1 -19z m-17 -28 c0 -5 -4 -10 -10 -10 -5 0 -10 5 -10 10 0 6 5 10 10 10
6 0 10 -4 10 -10z m177 -36 c-3 -3 -12 -4 -19 -1 -8 3 -5 6 6 6 11 1 17 -2 13
-5z"/>
</g>
</svg>
